HIERARCHY
ROOT Hips
{
    OFFSET   0.000000   0.000000   0.000000
    CHANNELS 6 Xposition Yposition Zposition Zrotation Xrotation Yrotation
    JOINT Chest
    {
        OFFSET   0.000000   8.007230   0.000000
        CHANNELS 3 Zrotation Xrotation Yrotation
        JOINT Chest2
        {
            OFFSET   0.000000  22.077100   0.000000
            CHANNELS 3 Zrotation Xrotation Yrotation
            JOINT Neck
            {
                OFFSET   0.000000  23.254800   0.000000
                CHANNELS 3 Zrotation Xrotation Yrotation
                JOINT Head
                {
                    OFFSET   0.000010  14.370000   1.956600
                    CHANNELS 3 Zrotation Xrotation Yrotation
                    End Site
                    {
                        OFFSET   0.000000  19.566000   0.000000
                    }
                }
            }
            JOINT LeftCollar
            {
                OFFSET   3.911900  19.017000  -0.467062
                CHANNELS 3 Zrotation Xrotation Yrotation
                JOINT LeftShoulder
                {
                    OFFSET  10.383700   0.000000   0.000000
                    CHANNELS 3 Zrotation Xrotation Yrotation
                    JOINT LeftElbow
                    {
                        OFFSET  26.662100   0.001193   0.000835
                        CHANNELS 3 Zrotation Xrotation Yrotation
                        JOINT LeftWrist
                        {
                            OFFSET  28.869000  -0.000058  -0.000075
                            CHANNELS 3 Zrotation Xrotation Yrotation
                            JOINT LeftFinger0
                            {
                                OFFSET   2.044660  -2.323460   3.252850
                                CHANNELS 3 Zrotation Xrotation Yrotation
                                JOINT LeftFinger01
                                {
                                    OFFSET   3.088130   0.000000   0.000000
                                    CHANNELS 3 Zrotation Xrotation Yrotation
                                    JOINT LeftFinger02
                                    {
                                        OFFSET   2.639450   0.000000   0.000000
                                        CHANNELS 3 Zrotation Xrotation Yrotation
                                        End Site
                                        {
                                            OFFSET   2.582190   0.000000   0.000000
                                        }
                                    }
                                }
                            }
                            JOINT LeftFinger1
                            {
                                OFFSET   8.364480   0.000000   3.252850
                                CHANNELS 3 Zrotation Xrotation Yrotation
                                JOINT LeftFinger11
                                {
                                    OFFSET   4.646920   0.000000   0.000000
                                    CHANNELS 3 Zrotation Xrotation Yrotation
                                    JOINT LeftFinger12
                                    {
                                        OFFSET   2.323460   0.000000   0.000000
                                        CHANNELS 3 Zrotation Xrotation Yrotation
                                        End Site
                                        {
                                            OFFSET   2.273050   0.000000   0.000000
                                        }
                                    }
                                }
                            }
                            JOINT LeftFinger2
                            {
                                OFFSET   8.364490   0.000016   1.078090
                                CHANNELS 3 Zrotation Xrotation Yrotation
                                JOINT LeftFinger21
                                {
                                    OFFSET   5.111620   0.000000   0.000000
                                    CHANNELS 3 Zrotation Xrotation Yrotation
                                    JOINT LeftFinger22
                                    {
                                        OFFSET   2.788150   0.000012   0.000000
                                        CHANNELS 3 Zrotation Xrotation Yrotation
                                        End Site
                                        {
                                            OFFSET   2.727660   0.000000   0.000000
                                        }
                                    }
                                }
                            }
                            JOINT LeftFinger3
                            {
                                OFFSET   7.899780   0.000014  -1.078090
                                CHANNELS 3 Zrotation Xrotation Yrotation
                                JOINT LeftFinger31
                                {
                                    OFFSET   4.646930   0.000000   0.000000
                                    CHANNELS 3 Zrotation Xrotation Yrotation
                                    JOINT LeftFinger32
                                    {
                                        OFFSET   2.323470   0.000000   0.000000
                                        CHANNELS 3 Zrotation Xrotation Yrotation
                                        End Site
                                        {
                                            OFFSET   2.273050   0.000000   0.000000
                                        }
                                    }
                                }
                            }
                            JOINT LeftFinger4
                            {
                                OFFSET   7.435090   0.000000  -3.252850
                                CHANNELS 3 Zrotation Xrotation Yrotation
                                JOINT LeftFinger41
                                {
                                    OFFSET   3.717550   0.000000   0.000000
                                    CHANNELS 3 Zrotation Xrotation Yrotation
                                    JOINT LeftFinger42
                                    {
                                        OFFSET   1.858770   0.000000   0.000000
                                        CHANNELS 3 Zrotation Xrotation Yrotation
                                        End Site
                                        {
                                            OFFSET   1.818440   0.000000   0.000000
                                        }
                                    }
                                }
                            }
                        }
                    }
                }
            }
            JOINT RightCollar
            {
                OFFSET  -3.911900  19.017000  -0.467063
                CHANNELS 3 Zrotation Xrotation Yrotation
                JOINT RightShoulder
                {
                    OFFSET -10.383700   0.000023   0.000000
                    CHANNELS 3 Zrotation Xrotation Yrotation
                    JOINT RightElbow
                    {
                        OFFSET -26.662100   0.001246   0.001011
                        CHANNELS 3 Zrotation Xrotation Yrotation
                        JOINT RightWrist
                        {
                            OFFSET -28.869000  -0.000026  -0.000078
                            CHANNELS 3 Zrotation Xrotation Yrotation
                            JOINT RightFinger0
                            {
                                OFFSET  -2.044660  -2.323490   3.252850
                                CHANNELS 3 Zrotation Xrotation Yrotation
                                JOINT RightFinger01
                                {
                                    OFFSET  -3.088130   0.000000   0.000000
                                    CHANNELS 3 Zrotation Xrotation Yrotation
                                    JOINT RightFinger02
                                    {
                                        OFFSET  -2.639460   0.000000   0.000000
                                        CHANNELS 3 Zrotation Xrotation Yrotation
                                        End Site
                                        {
                                            OFFSET  -2.582190   0.000000   0.000000
                                        }
                                    }
                                }
                            }
                            JOINT RightFinger1
                            {
                                OFFSET  -8.364480   0.000000   3.252850
                                CHANNELS 3 Zrotation Xrotation Yrotation
                                JOINT RightFinger11
                                {
                                    OFFSET  -4.646920   0.000000   0.000000
                                    CHANNELS 3 Zrotation Xrotation Yrotation
                                    JOINT RightFinger12
                                    {
                                        OFFSET  -2.323470   0.000000   0.000000
                                        CHANNELS 3 Zrotation Xrotation Yrotation
                                        End Site
                                        {
                                            OFFSET  -2.273050   0.000000   0.000000
                                        }
                                    }
                                }
                            }
                            JOINT RightFinger2
                            {
                                OFFSET  -8.364480   0.000000   1.078090
                                CHANNELS 3 Zrotation Xrotation Yrotation
                                JOINT RightFinger21
                                {
                                    OFFSET  -5.111620   0.000000   0.000000
                                    CHANNELS 3 Zrotation Xrotation Yrotation
                                    JOINT RightFinger22
                                    {
                                        OFFSET  -2.788160   0.000000   0.000000
                                        CHANNELS 3 Zrotation Xrotation Yrotation
                                        End Site
                                        {
                                            OFFSET  -2.727660   0.000000   0.000000
                                        }
                                    }
                                }
                            }
                            JOINT RightFinger3
                            {
                                OFFSET  -7.899780   0.000000  -1.078090
                                CHANNELS 3 Zrotation Xrotation Yrotation
                                JOINT RightFinger31
                                {
                                    OFFSET  -4.646930   0.000000   0.000000
                                    CHANNELS 3 Zrotation Xrotation Yrotation
                                    JOINT RightFinger32
                                    {
                                        OFFSET  -2.323470   0.000000   0.000000
                                        CHANNELS 3 Zrotation Xrotation Yrotation
                                        End Site
                                        {
                                            OFFSET  -2.273050   0.000000   0.000000
                                        }
                                    }
                                }
                            }
                            JOINT RightFinger4
                            {
                                OFFSET  -7.435090   0.000000  -3.252850
                                CHANNELS 3 Zrotation Xrotation Yrotation
                                JOINT RightFinger41
                                {
                                    OFFSET  -3.717550   0.000000   0.000000
                                    CHANNELS 3 Zrotation Xrotation Yrotation
                                    JOINT RightFinger42
                                    {
                                        OFFSET  -1.858760   0.000000   0.000000
                                        CHANNELS 3 Zrotation Xrotation Yrotation
                                        End Site
                                        {
                                            OFFSET  -1.818440   0.000000   0.000000
                                        }
                                    }
                                }
                            }
                        }
                    }
                }
            }
        }
    }
    JOINT LeftHip
    {
        OFFSET   9.783010   0.000000   0.000000
        CHANNELS 3 Zrotation Xrotation Yrotation
        JOINT LeftKnee
        {
            OFFSET   0.000073 -41.789100   0.001749
            CHANNELS 3 Zrotation Xrotation Yrotation
            JOINT LeftAnkle
            {
                OFFSET   0.000111 -41.133200  -0.000179
                CHANNELS 3 Zrotation Xrotation Yrotation
                JOINT LeftToe
                {
                    OFFSET   0.000000  -6.358960  14.674500
                    CHANNELS 3 Zrotation Xrotation Yrotation
                    End Site
                    {
                        OFFSET   0.000000   0.000000   3.913200
                    }
                }
            }
        }
    }
    JOINT RightHip
    {
        OFFSET  -9.783010   0.000000   0.000000
        CHANNELS 3 Zrotation Xrotation Yrotation
        JOINT RightKnee
        {
            OFFSET   0.000424 -41.789200   0.005205
            CHANNELS 3 Zrotation Xrotation Yrotation
            JOINT RightAnkle
            {
                OFFSET   0.000000 -41.133200  -0.000155
                CHANNELS 3 Zrotation Xrotation Yrotation
                JOINT RightToe
                {
                    OFFSET   0.000000  -6.358960  14.674500
                    CHANNELS 3 Zrotation Xrotation Yrotation
                    End Site
                    {
                        OFFSET   0.000000   0.000000   3.913200
                    }
                }
            }
        }
    }
}
MOTION
Frames: 6
Frame Time:   0.016667
 -0.613168  89.526300   1.905390  -3.901600 -12.542900  -3.293900   0.698938   8.291420  -1.103580   1.586480  16.566900  -2.348060   3.712650  -5.720600   0.365326   6.271130 -11.455100  14.879000  -7.419980  -7.226560  -2.824640 -46.065800  32.854000 -59.555100   6.946240 -22.558300 -113.088000  -7.113320 -28.513700 -21.418500  37.164300  54.636200 -80.726800 -60.014600  -0.003523  -0.003070 -33.309700  -0.002494  -0.004225  -8.351620   1.687580 -11.341300  -6.970220   0.001669  -0.001932  -4.879160   0.002186   0.003251  -9.574980  -0.191705   1.136660  -9.576820   0.001395  -0.001115  -6.378170   0.001965  -0.001262 -57.245800  -6.179050   3.962770 -57.459800   0.004171   0.001605 -43.094800  -0.002621  -0.008640 -53.347500 -10.471200   7.701450 -81.081400   0.000793  -0.001308 -54.000200   0.002915  -0.004150  11.700700  -4.538190  12.253400  69.731700  13.101000  -5.697440  -3.919050  -3.531830  18.120000 -14.597300  -5.720910   2.896580 -34.634500  28.345300  62.116900  34.673500  -0.002092   0.001524  12.336700  -0.004470   0.004235  29.355900   6.855560  11.981300  24.607800  -0.001210   0.002490  17.222700   0.003632   0.003805  28.785300   2.337140   4.244410  43.311700  -0.002018   0.000302  28.843200   0.003901   0.001827  28.665200   1.992110   3.637100  39.829200  -0.005423   0.002201  26.526300   0.003551  -0.000570  37.413800  -0.362460  -0.470522  56.123000  -0.015434  -0.000510  37.378000   0.006327   0.003946   2.429510  15.769700   5.677950   0.546805   0.098339   2.814600  -0.193263  -4.473770   3.281550   0.000000   0.000000   0.000000   4.064110  14.334800  -0.019426  -0.784186   2.288600  -5.354740  -1.543550  -4.684800   0.578617  -0.000000   0.000000   0.000000
 -0.612198  89.522900   1.918330  -3.900880 -12.527700  -3.297580   0.698677   8.284720  -1.101920   1.585470  16.553500  -2.344470   3.709900  -5.684020   0.364865   6.262940 -11.380900  14.780300  -7.425490  -7.245230  -2.833570 -46.018500  32.852500 -59.628100   6.947150 -22.593900 -113.038000  -7.085120 -28.449400 -21.400600  37.115400  54.571000 -80.665000 -59.975400  -0.003600  -0.003113 -33.283600  -0.002548  -0.004228  -8.325590   1.680430 -11.331200  -6.948270   0.001668  -0.001919  -4.863790   0.002221   0.003258  -9.604660  -0.188376   1.113160  -9.606550   0.001380  -0.001163  -6.397960   0.001958  -0.001305 -57.292500  -6.178870   3.954430 -57.506000   0.004194   0.001565 -43.129500  -0.002682  -0.008750 -53.362600 -10.467400   7.694530 -81.102700   0.000871  -0.001389 -54.014400   0.002909  -0.004192  11.690700  -4.553710  12.261600  69.735300  13.100900  -5.695700  -3.931740  -3.511610  18.129700 -14.596700  -5.722180   2.899850 -34.643300  28.363300  62.132300  34.666400  -0.002094   0.001516  12.333200  -0.004474   0.004230  29.348900   6.861080  11.992400  24.603200  -0.001211   0.002492  17.222900   0.003633   0.003806  28.780300   2.342360   4.254400  43.307600  -0.001786   0.000306  28.838500   0.003903   0.001823  28.664300   2.000180   3.652160  39.828100  -0.004481   0.002201  26.525500   0.003550  -0.000572  37.412900  -0.362937  -0.471427  56.121700  -0.013465  -0.000510  37.377100   0.006326   0.003769   2.420760  15.791400   5.678150   0.547612   0.042482   2.821630  -0.190980  -4.454040   3.287280   0.000000   0.000000   0.000000   4.049560  14.331300  -0.026206  -0.764965   2.288880  -5.353940  -1.549710  -4.689770   0.594335  -0.000000   0.000000   0.000000
 -0.610127  89.518400   1.932600  -3.899650 -12.516200  -3.297600   0.698451   8.279080  -1.101890   1.584830  16.542300  -2.344150   3.707740  -5.634220   0.363320   6.256110 -11.281300  14.674300  -7.427990  -7.269510  -2.841070 -45.965200  32.871200 -59.705200   6.968000 -22.653300 -112.977000  -7.024320 -28.422100 -21.379200  37.016200  54.530800 -80.548300 -60.038500  -0.003667  -0.003155 -33.325600  -0.002623  -0.004237  -8.287330   1.674990 -11.351200  -6.916680   0.001671  -0.001908  -4.841690   0.002250   0.003273  -9.610610  -0.177739   1.049260  -9.612240   0.001369  -0.001213  -6.401750   0.001947  -0.001340 -57.342200  -6.178750   3.945510 -57.555300   0.004205   0.001521 -43.166500  -0.002734  -0.008853 -53.386100 -10.461400   7.683770 -81.135900   0.000951  -0.001485 -54.036500   0.002879  -0.004232  11.678800  -4.567310  12.274100  69.735500  13.108100  -5.695120  -3.951250  -3.481870  18.142100 -14.604600  -5.731320   2.899680 -34.645100  28.367100  62.130600  34.671100  -0.002090   0.001524  12.333300  -0.004471   0.004235  29.348800   6.861930  11.992300  24.603200  -0.001207   0.002491  17.223000   0.003629   0.003810  28.780800   2.341960   4.248700  43.307900  -0.001788   0.000306  28.838800   0.003903   0.001825  28.664100   2.002600   3.657270  39.834100  -0.003894   0.002201  26.529400   0.003553  -0.000571  37.421100  -0.363366  -0.472819  56.133900  -0.007926  -0.000510  37.385200   0.006328   0.003663   2.418890  15.786700   5.677610   0.547712   0.057267   2.818150  -0.190017  -4.471680   3.296550  -0.000000   0.000000   0.000000   4.036820  14.334100  -0.025897  -0.745769   2.283520  -5.361050  -1.555790  -4.696350   0.607997  -0.000000   0.000000   0.000000
 -0.607552  89.513700   1.947230  -3.898770 -12.509700  -3.297550   0.697939   8.273990  -1.101870   1.583690  16.532200  -2.344000   3.704820  -5.570300   0.360096   6.247250 -11.153500  14.569700  -7.430190  -7.293110  -2.846540 -45.928300  32.888600 -59.765600   6.992140 -22.710500 -112.916000  -6.957260 -28.410300 -21.364500  36.916900  54.488300 -80.431100 -60.101600  -0.003737  -0.003196 -33.367700  -0.002699  -0.004247  -8.261880   1.672060 -11.371300  -6.895790   0.001677  -0.001904  -4.827080   0.002280   0.003289  -9.616430  -0.169895   1.002850  -9.617930   0.001359  -0.001263  -6.405540   0.001935  -0.001373 -57.386200  -6.178680   3.937750 -57.598900   0.004213   0.001478 -43.199200  -0.002788  -0.008951 -53.410400 -10.455300   7.672690 -81.170100   0.001032  -0.001583 -54.059300   0.002850  -0.004270  11.666000  -4.579480  12.288100  69.735100  13.125600  -5.694020  -3.972140  -3.454150  18.150000 -14.614000  -5.743600   2.898240 -34.644900  28.371900  62.125100  34.675900  -0.002087   0.001540  12.333400  -0.004465   0.004241  29.349000   6.862190  11.992000  24.603200  -0.001202   0.002490  17.223200   0.003625   0.003813  28.781900   2.341200   4.242990  43.308100  -0.001789   0.000304  28.839500   0.003902   0.001826  28.664200   2.003250   3.658990  39.842300  -0.003651   0.002201  26.534900   0.003556  -0.000570  37.432400  -0.363786  -0.474413  56.150800  -0.003886  -0.000510  37.396400   0.006330   0.003616   2.418390  15.781900   5.677090   0.547818   0.072052   2.812160  -0.188987  -4.489390   3.306540  -0.000000   0.000000   0.000000   4.027080  14.338100  -0.023731  -0.728581   2.278140  -5.372790  -1.561510  -4.703950   0.615524   0.000000   0.000000   0.000000
 -0.605263  89.509200   1.961810  -3.898250 -12.508200  -3.297380   0.697328   8.269050  -1.103640   1.582550  16.522200  -2.347430   3.700160  -5.493770   0.354902   6.234870 -11.000600  14.473500  -7.437440  -7.308440  -2.849080 -45.924900  32.888000 -59.792000   7.010230 -22.749900 -112.861000  -6.932810 -28.399900 -21.362300  36.872800  54.411800 -80.373600 -60.085600  -0.003822  -0.003238 -33.357000  -0.002761  -0.004253  -8.280180   1.672830 -11.354100  -6.910580   0.001678  -0.001906  -4.837430   0.002311   0.003297  -9.667670  -0.172842   1.014940  -9.669320   0.001342  -0.001308  -6.439770   0.001929  -0.001405 -57.406600  -6.178630   3.934570 -57.619200   0.004224   0.001445 -43.214300  -0.002857  -0.009041 -53.428700 -10.450700   7.664310 -81.196000   0.001118  -0.001666 -54.076500   0.002844  -0.004306  11.651900  -4.590310  12.299900  69.731700  13.154700  -5.685090  -3.989070  -3.440280  18.145900 -14.615600  -5.749400   2.890990 -34.647200  28.364700  62.096300  34.675000  -0.002094   0.001565  12.333500  -0.004463   0.004244  29.349600   6.862590  11.991800  24.603600  -0.001210   0.002488  17.223300   0.003629   0.003807  28.782900   2.340400   4.245460  43.307800  -0.001787   0.000301  28.840600   0.003902   0.001828  28.664200   2.003990   3.661590  39.843900  -0.003649   0.002198  26.536000   0.003554  -0.000569  37.435900  -0.364159  -0.476013  56.156000  -0.003882  -0.000512  37.399900   0.006328   0.003613   2.414830  15.798200   5.677260   0.548078   0.051703   2.805610  -0.186742  -4.489400   3.316380  -0.000000   0.000000   0.000000   4.020370  14.340000  -0.013046  -0.714903   2.279950  -5.384170  -1.566690  -4.712530   0.615939  -0.000000   0.000000   0.000000
 -0.602308  89.506000   1.976010  -3.897930 -12.508000  -3.297140   0.696966   8.264220  -1.109400   1.582570  16.512500  -2.358940   3.693180  -5.404890   0.348329   6.218050 -10.823000  14.387000  -7.447590  -7.319930  -2.849650 -45.928700  32.885300 -59.799100   7.024140 -22.757000 -112.819000  -6.925510 -28.394200 -21.361100  36.821300  54.326100 -80.306800 -60.069600  -0.003908  -0.003281 -33.346300  -0.002816  -0.004257  -8.312700   1.675270 -11.327600  -6.937050   0.001681  -0.001908  -4.855950   0.002345   0.003303  -9.738040  -0.178662   1.040720  -9.739630   0.001325  -0.001353  -6.486610   0.001921  -0.001438 -57.412000  -6.178610   3.933960 -57.624600   0.004234   0.001412 -43.218400  -0.002927  -0.009130 -53.437700 -10.448500   7.660210 -81.208600   0.001204  -0.001747 -54.084900   0.002841  -0.004341  11.639300  -4.599300  12.311500  69.725700  13.184600  -5.669390  -4.004900  -3.435910  18.138600 -14.617100  -5.756190   2.881900 -34.652400  28.350700  62.059600  34.671200  -0.002101   0.001582  12.333600  -0.004461   0.004245  29.350400   6.863010  11.991500  24.604300  -0.001217   0.002486  17.223400   0.003633   0.003801  28.784100   2.339440   4.247920  43.307500  -0.001785   0.000299  28.842000   0.003902   0.001830  28.664200   2.004470   3.663500  39.846200  -0.003648   0.002194  26.537600   0.003552  -0.000567  37.438200  -0.364745  -0.477654  56.159500  -0.003882  -0.000513  37.402300   0.006326   0.003613   2.410730  15.820900   5.677580   0.548331   0.031354   2.801570  -0.184834  -4.489430   3.321920  -0.000000   0.000000   0.000000   4.017370  14.341300  -0.004218  -0.707790   2.288030  -5.390950  -1.569180  -4.722920   0.616006  -0.000000   0.000000   0.000000
